<svg id="Layer_1" data-name="Layer 1" xmlns="http://www.w3.org/2000/svg" viewBox="0 0 141.73 141.73"><title>Icons Artboards</title><path d="M68.6,94.32c0-5.4,0-10.8,0-16.2,0-1.51-.1-1.6-1.65-1.61q-15.84,0-31.67,0a5.62,5.62,0,0,1-2-.3,2.24,2.24,0,0,1-1.56-2.07,2.16,2.16,0,0,1,1.44-2.26,6.12,6.12,0,0,1,2.21-.38q15.78,0,31.56,0c1.6,0,1.67-.07,1.67-1.7,0-7,.07-13.92.08-20.88,0-3.48-.06-6.95-.07-10.43a9.68,9.68,0,0,1,.14-1.79,2.5,2.5,0,0,1,2.4-2.12,2.42,2.42,0,0,1,2.37,2.13,21.66,21.66,0,0,1,.19,3.22q0,15-.06,30c0,1.42.16,1.57,1.59,1.58q15.78,0,31.55,0a8.5,8.5,0,0,1,2,.21,2.2,2.2,0,0,1,1.71,2.3,2.15,2.15,0,0,1-1.59,2.27,6.38,6.38,0,0,1-2,.24q-15.66,0-31.32,0c-1.91,0-2,0-2,1.93v31.31a11.56,11.56,0,0,1-.08,1.56,2.44,2.44,0,0,1-4.85-.2c-.08-1.79-.1-3.59-.1-5.39C68.59,101.92,68.6,98.12,68.6,94.32Z" style="fill:#1d2641"/></svg>