<svg id="Layer_1" data-name="Layer 1" xmlns="http://www.w3.org/2000/svg" viewBox="0 0 141.73 141.73"><title>Icons Artboards</title><path d="M70.62,112.37H44.82c-2.44,0-3.23-.66-3.47-3.07-.29-2.82-.5-5.65-.75-8.48Q39.31,86.56,38,72.28q-1.12-12.36-2.26-24.71c-.24-2.59-.49-5.17-.69-7.76-.07-1-.55-1.34-1.47-1.32s-2.08,0-3.12,0a2.35,2.35,0,0,1-.23-4.69,10,10,0,0,1,1.55-.09H53.29C54.84,33.7,55,33.52,55,32a23.7,23.7,0,0,1,.15-4.3,8.84,8.84,0,0,1,8.71-7.31c4.52-.07,9-.11,13.55-.07a9.23,9.23,0,0,1,9.16,9.33c0,.88,0,1.76,0,2.64-.05,1.08.42,1.47,1.5,1.46,7.24,0,14.48,0,21.72,0a8.52,8.52,0,0,1,1.43.09,2.32,2.32,0,0,1,2.15,2.55,2.37,2.37,0,0,1-2.46,2.15q-1.5,0-3,0a1.31,1.31,0,0,0-1.54,1.39q-.93,10.74-1.93,21.49c-.73,8-1.49,16.08-2.22,24.12q-1.05,11.64-2.09,23.28c0,.4-.06.8-.12,1.2a2.49,2.49,0,0,1-2.85,2.4Zm.07-73.79H41.78c-1.88,0-2,.2-1.83,2.11.39,4,.75,8,1.11,12.06q1.14,12.54,2.26,25.07,1.26,14,2.54,27.94c.15,1.68.25,1.82,1.94,1.82H93.63c1.31,0,1.81-.41,1.92-1.6q1.42-15.7,2.84-31.4,1.55-17,3.1-34c.16-1.74,0-2-1.76-2Zm0-4.88H80.3c1.38,0,1.59-.22,1.52-1.62,0-1.16-.1-2.32-.26-3.46a3.66,3.66,0,0,0-3.67-3.44q-7.19-.11-14.37,0a3.75,3.75,0,0,0-3.7,3.42c-.14,1.19-.14,2.39-.24,3.58s.43,1.56,1.56,1.54C64.33,33.67,67.52,33.7,70.72,33.7Z" style="fill:#1d2641"/><path d="M68.31,72.89v-22a12,12,0,0,1,.11-1.8,2.3,2.3,0,0,1,4.57,0,15.35,15.35,0,0,1,.11,2q0,22,0,43.92A12.18,12.18,0,0,1,73,97a2.28,2.28,0,0,1-2.27,1.92A2.32,2.32,0,0,1,68.43,97a12.1,12.1,0,0,1-.12-1.91Z" style="fill:#1d2641"/><path d="M59.6,95.08a17.37,17.37,0,0,1,0,1.91,2.19,2.19,0,0,1-1.89,1.9,2.07,2.07,0,0,1-2.41-1.16,5.44,5.44,0,0,1-.49-2Q53.17,73,51.6,50.13A3.15,3.15,0,0,1,52.28,48a3,3,0,0,1,2.11-.7,2,2,0,0,1,1.81,1.82c.2,1.42.3,2.85.41,4.29q1.48,20.85,3,41.7Z" style="fill:#1d2641"/><path d="M81.83,95.06q.67-9.32,1.34-18.64.92-12.86,1.82-25.7a13.36,13.36,0,0,1,.17-1.55,2.37,2.37,0,0,1,4.7.59q-.54,8.07-1.12,16.14-1,14.64-2.08,29.28a11.42,11.42,0,0,1-.28,2,2.36,2.36,0,0,1-2.55,1.71,2.21,2.21,0,0,1-2-2.29C81.82,96.1,81.83,95.58,81.83,95.06Z" style="fill:#1d2641"/></svg>