<svg id="Layer_1" data-name="Layer 1" xmlns="http://www.w3.org/2000/svg" viewBox="0 0 141.73 141.73"><title>Icons Artboards</title><path d="M70.14,116.34c-3.87-1.23-7.11-4.76-7.86-6.57a2.45,2.45,0,0,0-.37-.67,2.75,2.75,0,0,0-.52-.52,3,3,0,0,0-1.73-.41c-3.08.07-19.15,0-22.23,0a9.13,9.13,0,0,1-9-8.26,9,9,0,0,1,7.45-9.67c.74-.13,1.5-.21,2.25-.33a3.93,3.93,0,0,0,3.64-4.16c0-5.51-.07-11,0-16.53.19-13.23,6-23.1,17.76-29.35A4.32,4.32,0,0,0,62,36.35a12.33,12.33,0,0,1,24.4,0,4.26,4.26,0,0,0,2.49,3.53c12,6.7,17.83,17.07,18,30.73,0,5.07,0,10.14,0,15.22a3.77,3.77,0,0,0,3.45,3.92,27.63,27.63,0,0,1,3.66.58,9.31,9.31,0,0,1,6.28,9.56c-.64,4.71-3.92,7.91-8.56,8-7.5.14-15,.12-22.52.15-.12,0-.81,0-1.75,0a1.78,1.78,0,0,0-.35,0,3.54,3.54,0,0,0-1.63.41,2.9,2.9,0,0,0-1,1.23,12.6,12.6,0,0,1-4.15,5,13,13,0,0,1-6.94,2.12A11.12,11.12,0,0,1,70.14,116.34Zm-33.25-13c.16,0,.48.06.79.06l23.73-.05,33-.07c5.67,0,11.34,0,17-.08a4.18,4.18,0,0,0,4.13-3.49,4.14,4.14,0,0,0-2.32-4.55,8.91,8.91,0,0,0-2.67-.58c-4.77-.43-8.2-3.79-8.32-8.47-.12-4.83-.15-9.66,0-14.49.17-8-2-15.08-7.3-21.22-11-12.76-29.54-11.63-39.44-2-5.26,5.1-8.59,11.13-8.8,18.56-.17,6.06-.11,12.14-.06,18.21,0,5.19-3.26,9.1-8.26,9.6-.48,0-1,0-1.44.11a4.44,4.44,0,0,0-3.75,4.2A4.38,4.38,0,0,0,36.89,103.37ZM75.36,31.08a7.22,7.22,0,0,0-7.6,3.56,1.93,1.93,0,0,0-.21,1.52c.2.34.94.47,1.45.47,3.49,0,7,0,10.48-.05.48,0,1.2-.12,1.36-.42a1.9,1.9,0,0,0-.12-1.52A7,7,0,0,0,75.36,31.08Zm-1.94,81a8.35,8.35,0,0,0,2.92-.59,6.49,6.49,0,0,0,2-1.31,2.39,2.39,0,0,0,.47-.83.75.75,0,0,0,0-.49.87.87,0,0,0-.48-.45,1.86,1.86,0,0,0-.62-.19,42.18,42.18,0,0,0-8.61,0,1.45,1.45,0,0,0-.56.16,1,1,0,0,0-.47.42,1.06,1.06,0,0,0,.06.91,1.21,1.21,0,0,0,.23.34,6.06,6.06,0,0,0,1.38,1.09,7.1,7.1,0,0,0,1.7.7A7.79,7.79,0,0,0,73.42,112Z" style="fill:#002b5b"/><path d="M60.79,47.36C58.84,48.62,51.08,53.93,49.27,63A39.07,39.07,0,0,0,49,68.85c-.25,12.74,1.39,18.8-1.7,23.37A8.58,8.58,0,0,1,44,95.33a13,13,0,0,1-4.38,1.19,10.18,10.18,0,0,0-1.27.14,4.4,4.4,0,0,0-1.16.31,2.94,2.94,0,0,0-.86.55,3,3,0,0,0-.94,2.29,2.35,2.35,0,0,0,.35,1.15c.72,1.14,2.32,1.25,3,1.31a7.31,7.31,0,0,0,.87,0c3.26-.28,66.73,0,70.52,0a5.35,5.35,0,0,0,.88-.07,3.93,3.93,0,0,0,2-.79,3.16,3.16,0,0,0,.52-4.2A3.71,3.71,0,0,0,112.1,96c-1.63-.82-2.38-.25-4.45-.83a8.83,8.83,0,0,1-2.74-1.27,8.66,8.66,0,0,1-2.36-2.48,12.05,12.05,0,0,1-1.66-6.56c.21-12.37.31-18.55-1.21-23.52A27.36,27.36,0,0,0,89.8,47.6a25.39,25.39,0,0,0-9.12-4.15C70.9,41.28,62.89,46,60.79,47.36Z" style="fill:#ffd83d"/></svg>